<svg width="230" height="70" viewBox="0 0 230 70" fill="none" xmlns="http://www.w3.org/2000/svg">
<rect width="230" height="70" rx="35" fill="#ab9c8f"/>
<circle cx="36.5" cy="34.5" r="27" stroke="white"/>
<path d="M91.8359 41.2812V47.7969C91.5938 48.1172 91.2148 48.4688 90.6992 48.8516C90.1914 49.2266 89.5156 49.5508 88.6719 49.8242C87.8281 50.0977 86.7773 50.2344 85.5195 50.2344C84.4492 50.2344 83.4688 50.0547 82.5781 49.6953C81.6875 49.3281 80.918 48.793 80.2695 48.0898C79.6289 47.3867 79.1328 46.5312 78.7812 45.5234C78.4297 44.5078 78.2539 43.3516 78.2539 42.0547V40.8711C78.2539 39.582 78.4141 38.4336 78.7344 37.4258C79.0625 36.4102 79.5312 35.5508 80.1406 34.8477C80.75 34.1445 81.4844 33.6133 82.3438 33.2539C83.2109 32.8867 84.1914 32.7031 85.2852 32.7031C86.6836 32.7031 87.8398 32.9375 88.7539 33.4062C89.6758 33.8672 90.3867 34.5078 90.8867 35.3281C91.3867 36.1484 91.7031 37.0859 91.8359 38.1406H88.9531C88.8594 37.5469 88.6758 37.0156 88.4023 36.5469C88.1367 36.0781 87.7539 35.7109 87.2539 35.4453C86.7617 35.1719 86.1211 35.0352 85.332 35.0352C84.6523 35.0352 84.0547 35.1641 83.5391 35.4219C83.0234 35.6797 82.5938 36.0586 82.25 36.5586C81.9141 37.0586 81.6602 37.668 81.4883 38.3867C81.3164 39.1055 81.2305 39.9258 81.2305 40.8477V42.0547C81.2305 42.9922 81.3281 43.8242 81.5234 44.5508C81.7266 45.2773 82.0156 45.8906 82.3906 46.3906C82.7734 46.8906 83.2383 47.2695 83.7852 47.5273C84.332 47.7773 84.9492 47.9023 85.6367 47.9023C86.3086 47.9023 86.8594 47.8477 87.2891 47.7383C87.7188 47.6211 88.0586 47.4844 88.3086 47.3281C88.5664 47.1641 88.7656 47.0078 88.9062 46.8594V43.4727H85.3555V41.2812H91.8359ZM94.2734 43.8008V43.5312C94.2734 42.6172 94.4062 41.7695 94.6719 40.9883C94.9375 40.1992 95.3203 39.5156 95.8203 38.9375C96.3281 38.3516 96.9453 37.8984 97.6719 37.5781C98.4062 37.25 99.2344 37.0859 100.156 37.0859C101.086 37.0859 101.914 37.25 102.641 37.5781C103.375 37.8984 103.996 38.3516 104.504 38.9375C105.012 39.5156 105.398 40.1992 105.664 40.9883C105.93 41.7695 106.062 42.6172 106.062 43.5312V43.8008C106.062 44.7148 105.93 45.5625 105.664 46.3438C105.398 47.125 105.012 47.8086 104.504 48.3945C103.996 48.9727 103.379 49.4258 102.652 49.7539C101.926 50.0742 101.102 50.2344 100.18 50.2344C99.25 50.2344 98.418 50.0742 97.6836 49.7539C96.957 49.4258 96.3398 48.9727 95.832 48.3945C95.3242 47.8086 94.9375 47.125 94.6719 46.3438C94.4062 45.5625 94.2734 44.7148 94.2734 43.8008ZM97.0977 43.5312V43.8008C97.0977 44.3711 97.1562 44.9102 97.2734 45.418C97.3906 45.9258 97.5742 46.3711 97.8242 46.7539C98.0742 47.1367 98.3945 47.4375 98.7852 47.6562C99.1758 47.875 99.6406 47.9844 100.18 47.9844C100.703 47.9844 101.156 47.875 101.539 47.6562C101.93 47.4375 102.25 47.1367 102.5 46.7539C102.75 46.3711 102.934 45.9258 103.051 45.418C103.176 44.9102 103.238 44.3711 103.238 43.8008V43.5312C103.238 42.9688 103.176 42.4375 103.051 41.9375C102.934 41.4297 102.746 40.9805 102.488 40.5898C102.238 40.1992 101.918 39.8945 101.527 39.6758C101.145 39.4492 100.688 39.3359 100.156 39.3359C99.625 39.3359 99.1641 39.4492 98.7734 39.6758C98.3906 39.8945 98.0742 40.1992 97.8242 40.5898C97.5742 40.9805 97.3906 41.4297 97.2734 41.9375C97.1562 42.4375 97.0977 42.9688 97.0977 43.5312ZM107.891 43.8008V43.5312C107.891 42.6172 108.023 41.7695 108.289 40.9883C108.555 40.1992 108.938 39.5156 109.438 38.9375C109.945 38.3516 110.562 37.8984 111.289 37.5781C112.023 37.25 112.852 37.0859 113.773 37.0859C114.703 37.0859 115.531 37.25 116.258 37.5781C116.992 37.8984 117.613 38.3516 118.121 38.9375C118.629 39.5156 119.016 40.1992 119.281 40.9883C119.547 41.7695 119.68 42.6172 119.68 43.5312V43.8008C119.68 44.7148 119.547 45.5625 119.281 46.3438C119.016 47.125 118.629 47.8086 118.121 48.3945C117.613 48.9727 116.996 49.4258 116.27 49.7539C115.543 50.0742 114.719 50.2344 113.797 50.2344C112.867 50.2344 112.035 50.0742 111.301 49.7539C110.574 49.4258 109.957 48.9727 109.449 48.3945C108.941 47.8086 108.555 47.125 108.289 46.3438C108.023 45.5625 107.891 44.7148 107.891 43.8008ZM110.715 43.5312V43.8008C110.715 44.3711 110.773 44.9102 110.891 45.418C111.008 45.9258 111.191 46.3711 111.441 46.7539C111.691 47.1367 112.012 47.4375 112.402 47.6562C112.793 47.875 113.258 47.9844 113.797 47.9844C114.32 47.9844 114.773 47.875 115.156 47.6562C115.547 47.4375 115.867 47.1367 116.117 46.7539C116.367 46.3711 116.551 45.9258 116.668 45.418C116.793 44.9102 116.855 44.3711 116.855 43.8008V43.5312C116.855 42.9688 116.793 42.4375 116.668 41.9375C116.551 41.4297 116.363 40.9805 116.105 40.5898C115.855 40.1992 115.535 39.8945 115.145 39.6758C114.762 39.4492 114.305 39.3359 113.773 39.3359C113.242 39.3359 112.781 39.4492 112.391 39.6758C112.008 39.8945 111.691 40.1992 111.441 40.5898C111.191 40.9805 111.008 41.4297 110.891 41.9375C110.773 42.4375 110.715 42.9688 110.715 43.5312ZM130.168 37.3203H132.734V49.6484C132.734 50.7891 132.492 51.7578 132.008 52.5547C131.523 53.3516 130.848 53.957 129.98 54.3711C129.113 54.793 128.109 55.0039 126.969 55.0039C126.484 55.0039 125.945 54.9336 125.352 54.793C124.766 54.6523 124.195 54.4258 123.641 54.1133C123.094 53.8086 122.637 53.4062 122.27 52.9062L123.594 51.2422C124.047 51.7812 124.547 52.1758 125.094 52.4258C125.641 52.6758 126.215 52.8008 126.816 52.8008C127.465 52.8008 128.016 52.6797 128.469 52.4375C128.93 52.2031 129.285 51.8555 129.535 51.3945C129.785 50.9336 129.91 50.3711 129.91 49.707V40.1914L130.168 37.3203ZM121.555 43.8008V43.5547C121.555 42.5938 121.672 41.7188 121.906 40.9297C122.141 40.1328 122.477 39.4492 122.914 38.8789C123.352 38.3008 123.883 37.8594 124.508 37.5547C125.133 37.2422 125.84 37.0859 126.629 37.0859C127.449 37.0859 128.148 37.2344 128.727 37.5312C129.312 37.8281 129.801 38.2539 130.191 38.8086C130.582 39.3555 130.887 40.0117 131.105 40.7773C131.332 41.5352 131.5 42.3789 131.609 43.3086V44.0938C131.508 45 131.336 45.8281 131.094 46.5781C130.852 47.3281 130.531 47.9766 130.133 48.5234C129.734 49.0703 129.242 49.4922 128.656 49.7891C128.078 50.0859 127.395 50.2344 126.605 50.2344C125.832 50.2344 125.133 50.0742 124.508 49.7539C123.891 49.4336 123.359 48.9844 122.914 48.4062C122.477 47.8281 122.141 47.1484 121.906 46.3672C121.672 45.5781 121.555 44.7227 121.555 43.8008ZM124.379 43.5547V43.8008C124.379 44.3789 124.434 44.918 124.543 45.418C124.66 45.918 124.836 46.3594 125.07 46.7422C125.312 47.1172 125.617 47.4141 125.984 47.6328C126.359 47.8438 126.801 47.9492 127.309 47.9492C127.973 47.9492 128.516 47.8086 128.938 47.5273C129.367 47.2461 129.695 46.8672 129.922 46.3906C130.156 45.9062 130.32 45.3672 130.414 44.7734V42.6523C130.367 42.1914 130.27 41.7617 130.121 41.3633C129.98 40.9648 129.789 40.6172 129.547 40.3203C129.305 40.0156 129 39.7812 128.633 39.6172C128.266 39.4453 127.832 39.3594 127.332 39.3594C126.824 39.3594 126.383 39.4688 126.008 39.6875C125.633 39.9062 125.324 40.207 125.082 40.5898C124.848 40.9727 124.672 41.418 124.555 41.9258C124.438 42.4336 124.379 42.9766 124.379 43.5547ZM138.688 32V50H135.852V32H138.688ZM147.371 50.2344C146.434 50.2344 145.586 50.082 144.828 49.7773C144.078 49.4648 143.438 49.0312 142.906 48.4766C142.383 47.9219 141.98 47.2695 141.699 46.5195C141.418 45.7695 141.277 44.9609 141.277 44.0938V43.625C141.277 42.6328 141.422 41.7344 141.711 40.9297C142 40.125 142.402 39.4375 142.918 38.8672C143.434 38.2891 144.043 37.8477 144.746 37.543C145.449 37.2383 146.211 37.0859 147.031 37.0859C147.938 37.0859 148.73 37.2383 149.41 37.543C150.09 37.8477 150.652 38.2773 151.098 38.832C151.551 39.3789 151.887 40.0312 152.105 40.7891C152.332 41.5469 152.445 42.3828 152.445 43.2969V44.5039H142.648V42.4766H149.656V42.2539C149.641 41.7461 149.539 41.2695 149.352 40.8242C149.172 40.3789 148.895 40.0195 148.52 39.7461C148.145 39.4727 147.645 39.3359 147.02 39.3359C146.551 39.3359 146.133 39.4375 145.766 39.6406C145.406 39.8359 145.105 40.1211 144.863 40.4961C144.621 40.8711 144.434 41.3242 144.301 41.8555C144.176 42.3789 144.113 42.9688 144.113 43.625V44.0938C144.113 44.6484 144.188 45.1641 144.336 45.6406C144.492 46.1094 144.719 46.5195 145.016 46.8711C145.312 47.2227 145.672 47.5 146.094 47.7031C146.516 47.8984 146.996 47.9961 147.535 47.9961C148.215 47.9961 148.82 47.8594 149.352 47.5859C149.883 47.3125 150.344 46.9258 150.734 46.4258L152.223 47.8672C151.949 48.2656 151.594 48.6484 151.156 49.0156C150.719 49.375 150.184 49.668 149.551 49.8945C148.926 50.1211 148.199 50.2344 147.371 50.2344ZM167.387 43.6367H162.945V41.3047H167.387C168.16 41.3047 168.785 41.1797 169.262 40.9297C169.738 40.6797 170.086 40.3359 170.305 39.8984C170.531 39.4531 170.645 38.9453 170.645 38.375C170.645 37.8359 170.531 37.332 170.305 36.8633C170.086 36.3867 169.738 36.0039 169.262 35.7148C168.785 35.4258 168.16 35.2812 167.387 35.2812H163.848V50H160.906V32.9375H167.387C168.707 32.9375 169.828 33.1719 170.75 33.6406C171.68 34.1016 172.387 34.7422 172.871 35.5625C173.355 36.375 173.598 37.3047 173.598 38.3516C173.598 39.4531 173.355 40.3984 172.871 41.1875C172.387 41.9766 171.68 42.582 170.75 43.0039C169.828 43.4258 168.707 43.6367 167.387 43.6367ZM178.977 32V50H176.141V32H178.977ZM189.219 47.457V41.4102C189.219 40.957 189.137 40.5664 188.973 40.2383C188.809 39.9102 188.559 39.6562 188.223 39.4766C187.895 39.2969 187.48 39.207 186.98 39.207C186.52 39.207 186.121 39.2852 185.785 39.4414C185.449 39.5977 185.188 39.8086 185 40.0742C184.812 40.3398 184.719 40.6406 184.719 40.9766H181.906C181.906 40.4766 182.027 39.9922 182.27 39.5234C182.512 39.0547 182.863 38.6367 183.324 38.2695C183.785 37.9023 184.336 37.6133 184.977 37.4023C185.617 37.1914 186.336 37.0859 187.133 37.0859C188.086 37.0859 188.93 37.2461 189.664 37.5664C190.406 37.8867 190.988 38.3711 191.41 39.0195C191.84 39.6602 192.055 40.4648 192.055 41.4336V47.0703C192.055 47.6484 192.094 48.168 192.172 48.6289C192.258 49.082 192.379 49.4766 192.535 49.8125V50H189.641C189.508 49.6953 189.402 49.3086 189.324 48.8398C189.254 48.3633 189.219 47.9023 189.219 47.457ZM189.629 42.2891L189.652 44.0352H187.625C187.102 44.0352 186.641 44.0859 186.242 44.1875C185.844 44.2812 185.512 44.4219 185.246 44.6094C184.98 44.7969 184.781 45.0234 184.648 45.2891C184.516 45.5547 184.449 45.8555 184.449 46.1914C184.449 46.5273 184.527 46.8359 184.684 47.1172C184.84 47.3906 185.066 47.6055 185.363 47.7617C185.668 47.918 186.035 47.9961 186.465 47.9961C187.043 47.9961 187.547 47.8789 187.977 47.6445C188.414 47.4023 188.758 47.1094 189.008 46.7656C189.258 46.4141 189.391 46.082 189.406 45.7695L190.32 47.0234C190.227 47.3438 190.066 47.6875 189.84 48.0547C189.613 48.4219 189.316 48.7734 188.949 49.1094C188.59 49.4375 188.156 49.707 187.648 49.918C187.148 50.1289 186.57 50.2344 185.914 50.2344C185.086 50.2344 184.348 50.0703 183.699 49.7422C183.051 49.4062 182.543 48.957 182.176 48.3945C181.809 47.8242 181.625 47.1797 181.625 46.4609C181.625 45.7891 181.75 45.1953 182 44.6797C182.258 44.1562 182.633 43.7188 183.125 43.3672C183.625 43.0156 184.234 42.75 184.953 42.5703C185.672 42.3828 186.492 42.2891 187.414 42.2891H189.629ZM198.5 48.6172L201.945 37.3203H204.969L199.883 51.9336C199.766 52.2461 199.613 52.5859 199.426 52.9531C199.238 53.3203 198.992 53.668 198.688 53.9961C198.391 54.332 198.02 54.6016 197.574 54.8047C197.129 55.0156 196.59 55.1211 195.957 55.1211C195.707 55.1211 195.465 55.0977 195.23 55.0508C195.004 55.0117 194.789 54.9688 194.586 54.9219L194.574 52.7656C194.652 52.7734 194.746 52.7812 194.855 52.7891C194.973 52.7969 195.066 52.8008 195.137 52.8008C195.605 52.8008 195.996 52.7422 196.309 52.625C196.621 52.5156 196.875 52.3359 197.07 52.0859C197.273 51.8359 197.445 51.5 197.586 51.0781L198.5 48.6172ZM196.555 37.3203L199.566 46.8125L200.07 49.7891L198.113 50.293L193.508 37.3203H196.555Z" fill="white"/>
<path d="M81.1895 17.6055L78.6406 25H77.0996L80.3105 16.4688H81.2949L81.1895 17.6055ZM83.3223 25L80.7676 17.6055L80.6562 16.4688H81.6465L84.8691 25H83.3223ZM83.1992 21.8359V23.002H78.5586V21.8359H83.1992ZM86.9785 20.0137V25H85.5664V18.6602H86.8965L86.9785 20.0137ZM86.7266 21.5957L86.2695 21.5898C86.2734 21.1406 86.3359 20.7285 86.457 20.3535C86.582 19.9785 86.7539 19.6562 86.9727 19.3867C87.1953 19.1172 87.4609 18.9102 87.7695 18.7656C88.0781 18.6172 88.4219 18.543 88.8008 18.543C89.1055 18.543 89.3809 18.5859 89.627 18.6719C89.877 18.7539 90.0898 18.8887 90.2656 19.0762C90.4453 19.2637 90.582 19.5078 90.6758 19.8086C90.7695 20.1055 90.8164 20.4707 90.8164 20.9043V25H89.3984V20.8984C89.3984 20.5938 89.3535 20.3535 89.2637 20.1777C89.1777 19.998 89.0508 19.8711 88.8828 19.7969C88.7188 19.7188 88.5137 19.6797 88.2676 19.6797C88.0254 19.6797 87.8086 19.7305 87.6172 19.832C87.4258 19.9336 87.2637 20.0723 87.1309 20.248C87.002 20.4238 86.9023 20.627 86.832 20.8574C86.7617 21.0879 86.7266 21.334 86.7266 21.5957ZM96.125 23.6875V16H97.543V25H96.2598L96.125 23.6875ZM92 21.9004V21.7773C92 21.2969 92.0566 20.8594 92.1699 20.4648C92.2832 20.0664 92.4473 19.7246 92.6621 19.4395C92.877 19.1504 93.1387 18.9297 93.4473 18.7773C93.7559 18.6211 94.1035 18.543 94.4902 18.543C94.873 18.543 95.209 18.6172 95.498 18.7656C95.7871 18.9141 96.0332 19.127 96.2363 19.4043C96.4395 19.6777 96.6016 20.0059 96.7227 20.3887C96.8438 20.7676 96.9297 21.1895 96.9805 21.6543V22.0469C96.9297 22.5 96.8438 22.9141 96.7227 23.2891C96.6016 23.6641 96.4395 23.9883 96.2363 24.2617C96.0332 24.5352 95.7852 24.7461 95.4922 24.8945C95.2031 25.043 94.8652 25.1172 94.4785 25.1172C94.0957 25.1172 93.75 25.0371 93.4414 24.877C93.1367 24.7168 92.877 24.4922 92.6621 24.2031C92.4473 23.9141 92.2832 23.5742 92.1699 23.1836C92.0566 22.7891 92 22.3613 92 21.9004ZM93.4121 21.7773V21.9004C93.4121 22.1895 93.4375 22.459 93.4883 22.709C93.543 22.959 93.627 23.1797 93.7402 23.3711C93.8535 23.5586 94 23.707 94.1797 23.8164C94.3633 23.9219 94.582 23.9746 94.8359 23.9746C95.1562 23.9746 95.4199 23.9043 95.627 23.7637C95.834 23.623 95.9961 23.4336 96.1133 23.1953C96.2344 22.9531 96.3164 22.6836 96.3594 22.3867V21.3262C96.3359 21.0957 96.2871 20.8809 96.2129 20.6816C96.1426 20.4824 96.0469 20.3086 95.9258 20.1602C95.8047 20.0078 95.6543 19.8906 95.4746 19.8086C95.2988 19.7227 95.0898 19.6797 94.8477 19.6797C94.5898 19.6797 94.3711 19.7344 94.1914 19.8438C94.0117 19.9531 93.8633 20.1035 93.7461 20.2949C93.6328 20.4863 93.5488 20.709 93.4941 20.9629C93.4395 21.2168 93.4121 21.4883 93.4121 21.7773ZM100.438 19.8672V25H99.0254V18.6602H100.373L100.438 19.8672ZM102.377 18.6191L102.365 19.9316C102.279 19.916 102.186 19.9043 102.084 19.8965C101.986 19.8887 101.889 19.8848 101.791 19.8848C101.549 19.8848 101.336 19.9199 101.152 19.9902C100.969 20.0566 100.814 20.1543 100.689 20.2832C100.568 20.4082 100.475 20.5605 100.408 20.7402C100.342 20.9199 100.303 21.1211 100.291 21.3438L99.9688 21.3672C99.9688 20.9688 100.008 20.5996 100.086 20.2598C100.164 19.9199 100.281 19.6211 100.438 19.3633C100.598 19.1055 100.797 18.9043 101.035 18.7598C101.277 18.6152 101.557 18.543 101.873 18.543C101.959 18.543 102.051 18.5508 102.148 18.5664C102.25 18.582 102.326 18.5996 102.377 18.6191ZM102.84 21.9004V21.7656C102.84 21.3086 102.906 20.8848 103.039 20.4941C103.172 20.0996 103.363 19.7578 103.613 19.4688C103.867 19.1758 104.176 18.9492 104.539 18.7891C104.906 18.625 105.32 18.543 105.781 18.543C106.246 18.543 106.66 18.625 107.023 18.7891C107.391 18.9492 107.701 19.1758 107.955 19.4688C108.209 19.7578 108.402 20.0996 108.535 20.4941C108.668 20.8848 108.734 21.3086 108.734 21.7656V21.9004C108.734 22.3574 108.668 22.7812 108.535 23.1719C108.402 23.5625 108.209 23.9043 107.955 24.1973C107.701 24.4863 107.393 24.7129 107.029 24.877C106.666 25.0371 106.254 25.1172 105.793 25.1172C105.328 25.1172 104.912 25.0371 104.545 24.877C104.182 24.7129 103.873 24.4863 103.619 24.1973C103.365 23.9043 103.172 23.5625 103.039 23.1719C102.906 22.7812 102.84 22.3574 102.84 21.9004ZM104.252 21.7656V21.9004C104.252 22.1855 104.281 22.4551 104.34 22.709C104.398 22.9629 104.49 23.1855 104.615 23.377C104.74 23.5684 104.9 23.7188 105.096 23.8281C105.291 23.9375 105.523 23.9922 105.793 23.9922C106.055 23.9922 106.281 23.9375 106.473 23.8281C106.668 23.7188 106.828 23.5684 106.953 23.377C107.078 23.1855 107.17 22.9629 107.229 22.709C107.291 22.4551 107.322 22.1855 107.322 21.9004V21.7656C107.322 21.4844 107.291 21.2188 107.229 20.9688C107.17 20.7148 107.076 20.4902 106.947 20.2949C106.822 20.0996 106.662 19.9473 106.467 19.8379C106.275 19.7246 106.047 19.668 105.781 19.668C105.516 19.668 105.285 19.7246 105.09 19.8379C104.898 19.9473 104.74 20.0996 104.615 20.2949C104.49 20.4902 104.398 20.7148 104.34 20.9688C104.281 21.2188 104.252 21.4844 104.252 21.7656ZM111.43 18.6602V25H110.012V18.6602H111.43ZM109.918 16.9961C109.918 16.7812 109.988 16.6035 110.129 16.4629C110.273 16.3184 110.473 16.2461 110.727 16.2461C110.977 16.2461 111.174 16.3184 111.318 16.4629C111.463 16.6035 111.535 16.7812 111.535 16.9961C111.535 17.207 111.463 17.3828 111.318 17.5234C111.174 17.6641 110.977 17.7344 110.727 17.7344C110.473 17.7344 110.273 17.6641 110.129 17.5234C109.988 17.3828 109.918 17.207 109.918 16.9961ZM116.844 23.6875V16H118.262V25H116.979L116.844 23.6875ZM112.719 21.9004V21.7773C112.719 21.2969 112.775 20.8594 112.889 20.4648C113.002 20.0664 113.166 19.7246 113.381 19.4395C113.596 19.1504 113.857 18.9297 114.166 18.7773C114.475 18.6211 114.822 18.543 115.209 18.543C115.592 18.543 115.928 18.6172 116.217 18.7656C116.506 18.9141 116.752 19.127 116.955 19.4043C117.158 19.6777 117.32 20.0059 117.441 20.3887C117.562 20.7676 117.648 21.1895 117.699 21.6543V22.0469C117.648 22.5 117.562 22.9141 117.441 23.2891C117.32 23.6641 117.158 23.9883 116.955 24.2617C116.752 24.5352 116.504 24.7461 116.211 24.8945C115.922 25.043 115.584 25.1172 115.197 25.1172C114.814 25.1172 114.469 25.0371 114.16 24.877C113.855 24.7168 113.596 24.4922 113.381 24.2031C113.166 23.9141 113.002 23.5742 112.889 23.1836C112.775 22.7891 112.719 22.3613 112.719 21.9004ZM114.131 21.7773V21.9004C114.131 22.1895 114.156 22.459 114.207 22.709C114.262 22.959 114.346 23.1797 114.459 23.3711C114.572 23.5586 114.719 23.707 114.898 23.8164C115.082 23.9219 115.301 23.9746 115.555 23.9746C115.875 23.9746 116.139 23.9043 116.346 23.7637C116.553 23.623 116.715 23.4336 116.832 23.1953C116.953 22.9531 117.035 22.6836 117.078 22.3867V21.3262C117.055 21.0957 117.006 20.8809 116.932 20.6816C116.861 20.4824 116.766 20.3086 116.645 20.1602C116.523 20.0078 116.373 19.8906 116.193 19.8086C116.018 19.7227 115.809 19.6797 115.566 19.6797C115.309 19.6797 115.09 19.7344 114.91 19.8438C114.73 19.9531 114.582 20.1035 114.465 20.2949C114.352 20.4863 114.268 20.709 114.213 20.9629C114.158 21.2168 114.131 21.4883 114.131 21.7773ZM126.189 17.6055L123.641 25H122.1L125.311 16.4688H126.295L126.189 17.6055ZM128.322 25L125.768 17.6055L125.656 16.4688H126.646L129.869 25H128.322ZM128.199 21.8359V23.002H123.559V21.8359H128.199ZM131.996 19.8789V27.4375H130.584V18.6602H131.885L131.996 19.8789ZM136.127 21.7715V21.8945C136.127 22.3555 136.072 22.7832 135.963 23.1777C135.857 23.5684 135.699 23.9102 135.488 24.2031C135.281 24.4922 135.025 24.7168 134.721 24.877C134.416 25.0371 134.064 25.1172 133.666 25.1172C133.271 25.1172 132.926 25.0449 132.629 24.9004C132.336 24.752 132.088 24.543 131.885 24.2734C131.682 24.0039 131.518 23.6875 131.393 23.3242C131.271 22.957 131.186 22.5547 131.135 22.1172V21.6426C131.186 21.1777 131.271 20.7559 131.393 20.377C131.518 19.998 131.682 19.6719 131.885 19.3984C132.088 19.125 132.336 18.9141 132.629 18.7656C132.922 18.6172 133.264 18.543 133.654 18.543C134.053 18.543 134.406 18.6211 134.715 18.7773C135.023 18.9297 135.283 19.1484 135.494 19.4336C135.705 19.7148 135.863 20.0547 135.969 20.4531C136.074 20.8477 136.127 21.2871 136.127 21.7715ZM134.715 21.8945V21.7715C134.715 21.4785 134.688 21.207 134.633 20.957C134.578 20.7031 134.492 20.4805 134.375 20.2891C134.258 20.0977 134.107 19.9492 133.924 19.8438C133.744 19.7344 133.527 19.6797 133.273 19.6797C133.023 19.6797 132.809 19.7227 132.629 19.8086C132.449 19.8906 132.299 20.0059 132.178 20.1543C132.057 20.3027 131.963 20.4766 131.896 20.6758C131.83 20.8711 131.783 21.084 131.756 21.3145V22.4512C131.803 22.7324 131.883 22.9902 131.996 23.2246C132.109 23.459 132.27 23.6465 132.477 23.7871C132.688 23.9238 132.957 23.9922 133.285 23.9922C133.539 23.9922 133.756 23.9375 133.936 23.8281C134.115 23.7188 134.262 23.5684 134.375 23.377C134.492 23.1816 134.578 22.957 134.633 22.7031C134.688 22.4492 134.715 22.1797 134.715 21.8945ZM138.746 19.8789V27.4375H137.334V18.6602H138.635L138.746 19.8789ZM142.877 21.7715V21.8945C142.877 22.3555 142.822 22.7832 142.713 23.1777C142.607 23.5684 142.449 23.9102 142.238 24.2031C142.031 24.4922 141.775 24.7168 141.471 24.877C141.166 25.0371 140.814 25.1172 140.416 25.1172C140.021 25.1172 139.676 25.0449 139.379 24.9004C139.086 24.752 138.838 24.543 138.635 24.2734C138.432 24.0039 138.268 23.6875 138.143 23.3242C138.021 22.957 137.936 22.5547 137.885 22.1172V21.6426C137.936 21.1777 138.021 20.7559 138.143 20.377C138.268 19.998 138.432 19.6719 138.635 19.3984C138.838 19.125 139.086 18.9141 139.379 18.7656C139.672 18.6172 140.014 18.543 140.404 18.543C140.803 18.543 141.156 18.6211 141.465 18.7773C141.773 18.9297 142.033 19.1484 142.244 19.4336C142.455 19.7148 142.613 20.0547 142.719 20.4531C142.824 20.8477 142.877 21.2871 142.877 21.7715ZM141.465 21.8945V21.7715C141.465 21.4785 141.438 21.207 141.383 20.957C141.328 20.7031 141.242 20.4805 141.125 20.2891C141.008 20.0977 140.857 19.9492 140.674 19.8438C140.494 19.7344 140.277 19.6797 140.023 19.6797C139.773 19.6797 139.559 19.7227 139.379 19.8086C139.199 19.8906 139.049 20.0059 138.928 20.1543C138.807 20.3027 138.713 20.4766 138.646 20.6758C138.58 20.8711 138.533 21.084 138.506 21.3145V22.4512C138.553 22.7324 138.633 22.9902 138.746 23.2246C138.859 23.459 139.02 23.6465 139.227 23.7871C139.438 23.9238 139.707 23.9922 140.035 23.9922C140.289 23.9922 140.506 23.9375 140.686 23.8281C140.865 23.7188 141.012 23.5684 141.125 23.377C141.242 23.1816 141.328 22.957 141.383 22.7031C141.438 22.4492 141.465 22.1797 141.465 21.8945ZM146.797 21.9004V21.7656C146.797 21.3086 146.863 20.8848 146.996 20.4941C147.129 20.0996 147.32 19.7578 147.57 19.4688C147.824 19.1758 148.133 18.9492 148.496 18.7891C148.863 18.625 149.277 18.543 149.738 18.543C150.203 18.543 150.617 18.625 150.98 18.7891C151.348 18.9492 151.658 19.1758 151.912 19.4688C152.166 19.7578 152.359 20.0996 152.492 20.4941C152.625 20.8848 152.691 21.3086 152.691 21.7656V21.9004C152.691 22.3574 152.625 22.7812 152.492 23.1719C152.359 23.5625 152.166 23.9043 151.912 24.1973C151.658 24.4863 151.35 24.7129 150.986 24.877C150.623 25.0371 150.211 25.1172 149.75 25.1172C149.285 25.1172 148.869 25.0371 148.502 24.877C148.139 24.7129 147.83 24.4863 147.576 24.1973C147.322 23.9043 147.129 23.5625 146.996 23.1719C146.863 22.7812 146.797 22.3574 146.797 21.9004ZM148.209 21.7656V21.9004C148.209 22.1855 148.238 22.4551 148.297 22.709C148.355 22.9629 148.447 23.1855 148.572 23.377C148.697 23.5684 148.857 23.7188 149.053 23.8281C149.248 23.9375 149.48 23.9922 149.75 23.9922C150.012 23.9922 150.238 23.9375 150.43 23.8281C150.625 23.7188 150.785 23.5684 150.91 23.377C151.035 23.1855 151.127 22.9629 151.186 22.709C151.248 22.4551 151.279 22.1855 151.279 21.9004V21.7656C151.279 21.4844 151.248 21.2188 151.186 20.9688C151.127 20.7148 151.033 20.4902 150.904 20.2949C150.779 20.0996 150.619 19.9473 150.424 19.8379C150.232 19.7246 150.004 19.668 149.738 19.668C149.473 19.668 149.242 19.7246 149.047 19.8379C148.855 19.9473 148.697 20.0996 148.572 20.2949C148.447 20.4902 148.355 20.7148 148.297 20.9688C148.238 21.2188 148.209 21.4844 148.209 21.7656ZM155.275 20.0137V25H153.863V18.6602H155.193L155.275 20.0137ZM155.023 21.5957L154.566 21.5898C154.57 21.1406 154.633 20.7285 154.754 20.3535C154.879 19.9785 155.051 19.6562 155.27 19.3867C155.492 19.1172 155.758 18.9102 156.066 18.7656C156.375 18.6172 156.719 18.543 157.098 18.543C157.402 18.543 157.678 18.5859 157.924 18.6719C158.174 18.7539 158.387 18.8887 158.562 19.0762C158.742 19.2637 158.879 19.5078 158.973 19.8086C159.066 20.1055 159.113 20.4707 159.113 20.9043V25H157.695V20.8984C157.695 20.5938 157.65 20.3535 157.561 20.1777C157.475 19.998 157.348 19.8711 157.18 19.7969C157.016 19.7188 156.811 19.6797 156.564 19.6797C156.322 19.6797 156.105 19.7305 155.914 19.832C155.723 19.9336 155.561 20.0723 155.428 20.248C155.299 20.4238 155.199 20.627 155.129 20.8574C155.059 21.0879 155.023 21.334 155.023 21.5957Z" fill="white"/>
<path d="M27.09 23C27.5362 22.9421 27.9887 23.0411 28.37 23.28L41.37 30.67L38.08 34L27.09 23ZM26.09 24C26.0273 24.2177 25.9969 24.4435 26 24.67V45.33C25.9969 45.5566 26.0273 45.7823 26.09 46L37.09 35L26.09 24ZM38.09 36L27.09 47C27.5364 47.0632 27.9907 46.9638 28.37 46.72L41.37 39.33L38.09 36ZM46.61 33.66L42.67 31.42L39.07 35L42.66 38.59L46.6 36.35C47.9 35.61 47.9 34.39 46.6 33.65L46.61 33.66Z" fill="white"/>
</svg>
