<svg width="230" height="70" viewBox="0 0 230 70" fill="none" xmlns="http://www.w3.org/2000/svg">
<rect width="230" height="70" rx="35" fill="#ab9c8f"/>
<g clip-path="url(#clip0_12_184)">
<path d="M43.1595 15.018C43.083 14.9325 40.3267 15.0518 37.9282 17.655C35.5297 20.256 35.8987 23.2395 35.9527 23.316C36.0067 23.3925 39.3727 23.5118 41.5215 20.4855C43.6702 17.4593 43.236 15.1058 43.1595 15.018ZM50.616 41.4173C50.508 41.2013 45.3847 38.6408 45.8617 33.7178C46.3387 28.7925 49.6305 27.4425 49.6822 27.2963C49.734 27.15 48.339 25.5188 46.8607 24.693C45.7753 24.1108 44.5741 23.7773 43.344 23.7165C43.101 23.7098 42.2572 23.5028 40.5225 23.9775C39.3795 24.2903 36.8032 25.3028 36.0945 25.3433C35.3835 25.3838 33.2685 24.1688 30.9937 23.847C29.538 23.5658 27.9945 24.1418 26.8897 24.585C25.7872 25.026 23.6902 26.2815 22.2232 29.6183C20.7562 32.9528 21.5235 38.2358 22.0725 39.8783C22.6215 41.5185 23.4787 44.2073 24.9367 46.1693C26.2327 48.3833 27.9517 49.92 28.6695 50.442C29.3872 50.964 31.4122 51.3105 32.8162 50.5928C33.9457 49.8998 35.9842 49.5015 36.7897 49.5308C37.593 49.56 39.177 49.8773 40.7992 50.7435C42.084 51.1868 43.299 51.0023 44.5162 50.5073C45.7335 50.01 47.4952 48.1245 49.5517 44.3018C50.3325 42.5243 50.688 41.5635 50.616 41.4173Z" fill="white"/>
<path d="M43.1595 15.018C43.083 14.9325 40.3267 15.0518 37.9282 17.655C35.5297 20.256 35.8987 23.2395 35.9527 23.316C36.0067 23.3925 39.3727 23.5118 41.5215 20.4855C43.6702 17.4593 43.236 15.1058 43.1595 15.018ZM50.616 41.4173C50.508 41.2013 45.3847 38.6408 45.8617 33.7178C46.3387 28.7925 49.6305 27.4425 49.6822 27.2963C49.734 27.15 48.339 25.5188 46.8607 24.693C45.7753 24.1108 44.5741 23.7773 43.344 23.7165C43.101 23.7098 42.2572 23.5028 40.5225 23.9775C39.3795 24.2903 36.8032 25.3028 36.0945 25.3433C35.3835 25.3838 33.2685 24.1688 30.9937 23.847C29.538 23.5658 27.9945 24.1418 26.8897 24.585C25.7872 25.026 23.6902 26.2815 22.2232 29.6183C20.7562 32.9528 21.5235 38.2358 22.0725 39.8783C22.6215 41.5185 23.4787 44.2073 24.9367 46.1693C26.2327 48.3833 27.9517 49.92 28.6695 50.442C29.3872 50.964 31.4122 51.3105 32.8162 50.5928C33.9457 49.8998 35.9842 49.5015 36.7897 49.5308C37.593 49.56 39.177 49.8773 40.7992 50.7435C42.084 51.1868 43.299 51.0023 44.5162 50.5073C45.7335 50.01 47.4952 48.1245 49.5517 44.3018C50.3325 42.5243 50.688 41.5635 50.616 41.4173Z" fill="white"/>
</g>
<circle cx="36.5" cy="34.5" r="27" stroke="white"/>
<path d="M85.3789 35.2109L80.2812 50H77.1992L83.6211 32.9375H85.5898L85.3789 35.2109ZM89.6445 50L84.5352 35.2109L84.3125 32.9375H86.293L92.7383 50H89.6445ZM89.3984 43.6719V46.0039H80.1172V43.6719H89.3984ZM96.9922 39.7578V54.875H94.168V37.3203H96.7695L96.9922 39.7578ZM105.254 43.543V43.7891C105.254 44.7109 105.145 45.5664 104.926 46.3555C104.715 47.1367 104.398 47.8203 103.977 48.4062C103.562 48.9844 103.051 49.4336 102.441 49.7539C101.832 50.0742 101.129 50.2344 100.332 50.2344C99.543 50.2344 98.8516 50.0898 98.2578 49.8008C97.6719 49.5039 97.1758 49.0859 96.7695 48.5469C96.3633 48.0078 96.0352 47.375 95.7852 46.6484C95.543 45.9141 95.3711 45.1094 95.2695 44.2344V43.2852C95.3711 42.3555 95.543 41.5117 95.7852 40.7539C96.0352 39.9961 96.3633 39.3438 96.7695 38.7969C97.1758 38.25 97.6719 37.8281 98.2578 37.5312C98.8438 37.2344 99.5273 37.0859 100.309 37.0859C101.105 37.0859 101.812 37.2422 102.43 37.5547C103.047 37.8594 103.566 38.2969 103.988 38.8672C104.41 39.4297 104.727 40.1094 104.938 40.9062C105.148 41.6953 105.254 42.5742 105.254 43.543ZM102.43 43.7891V43.543C102.43 42.957 102.375 42.4141 102.266 41.9141C102.156 41.4062 101.984 40.9609 101.75 40.5781C101.516 40.1953 101.215 39.8984 100.848 39.6875C100.488 39.4688 100.055 39.3594 99.5469 39.3594C99.0469 39.3594 98.6172 39.4453 98.2578 39.6172C97.8984 39.7812 97.5977 40.0117 97.3555 40.3086C97.1133 40.6055 96.9258 40.9531 96.793 41.3516C96.6602 41.7422 96.5664 42.168 96.5117 42.6289V44.9023C96.6055 45.4648 96.7656 45.9805 96.9922 46.4492C97.2188 46.918 97.5391 47.293 97.9531 47.5742C98.375 47.8477 98.9141 47.9844 99.5703 47.9844C100.078 47.9844 100.512 47.875 100.871 47.6562C101.23 47.4375 101.523 47.1367 101.75 46.7539C101.984 46.3633 102.156 45.9141 102.266 45.4062C102.375 44.8984 102.43 44.3594 102.43 43.7891ZM110.492 39.7578V54.875H107.668V37.3203H110.27L110.492 39.7578ZM118.754 43.543V43.7891C118.754 44.7109 118.645 45.5664 118.426 46.3555C118.215 47.1367 117.898 47.8203 117.477 48.4062C117.062 48.9844 116.551 49.4336 115.941 49.7539C115.332 50.0742 114.629 50.2344 113.832 50.2344C113.043 50.2344 112.352 50.0898 111.758 49.8008C111.172 49.5039 110.676 49.0859 110.27 48.5469C109.863 48.0078 109.535 47.375 109.285 46.6484C109.043 45.9141 108.871 45.1094 108.77 44.2344V43.2852C108.871 42.3555 109.043 41.5117 109.285 40.7539C109.535 39.9961 109.863 39.3438 110.27 38.7969C110.676 38.25 111.172 37.8281 111.758 37.5312C112.344 37.2344 113.027 37.0859 113.809 37.0859C114.605 37.0859 115.312 37.2422 115.93 37.5547C116.547 37.8594 117.066 38.2969 117.488 38.8672C117.91 39.4297 118.227 40.1094 118.438 40.9062C118.648 41.6953 118.754 42.5742 118.754 43.543ZM115.93 43.7891V43.543C115.93 42.957 115.875 42.4141 115.766 41.9141C115.656 41.4062 115.484 40.9609 115.25 40.5781C115.016 40.1953 114.715 39.8984 114.348 39.6875C113.988 39.4688 113.555 39.3594 113.047 39.3594C112.547 39.3594 112.117 39.4453 111.758 39.6172C111.398 39.7812 111.098 40.0117 110.855 40.3086C110.613 40.6055 110.426 40.9531 110.293 41.3516C110.16 41.7422 110.066 42.168 110.012 42.6289V44.9023C110.105 45.4648 110.266 45.9805 110.492 46.4492C110.719 46.918 111.039 47.293 111.453 47.5742C111.875 47.8477 112.414 47.9844 113.07 47.9844C113.578 47.9844 114.012 47.875 114.371 47.6562C114.73 47.4375 115.023 47.1367 115.25 46.7539C115.484 46.3633 115.656 45.9141 115.766 45.4062C115.875 44.8984 115.93 44.3594 115.93 43.7891ZM124.18 32V50H121.344V32H124.18ZM132.863 50.2344C131.926 50.2344 131.078 50.082 130.32 49.7773C129.57 49.4648 128.93 49.0312 128.398 48.4766C127.875 47.9219 127.473 47.2695 127.191 46.5195C126.91 45.7695 126.77 44.9609 126.77 44.0938V43.625C126.77 42.6328 126.914 41.7344 127.203 40.9297C127.492 40.125 127.895 39.4375 128.41 38.8672C128.926 38.2891 129.535 37.8477 130.238 37.543C130.941 37.2383 131.703 37.0859 132.523 37.0859C133.43 37.0859 134.223 37.2383 134.902 37.543C135.582 37.8477 136.145 38.2773 136.59 38.832C137.043 39.3789 137.379 40.0312 137.598 40.7891C137.824 41.5469 137.938 42.3828 137.938 43.2969V44.5039H128.141V42.4766H135.148V42.2539C135.133 41.7461 135.031 41.2695 134.844 40.8242C134.664 40.3789 134.387 40.0195 134.012 39.7461C133.637 39.4727 133.137 39.3359 132.512 39.3359C132.043 39.3359 131.625 39.4375 131.258 39.6406C130.898 39.8359 130.598 40.1211 130.355 40.4961C130.113 40.8711 129.926 41.3242 129.793 41.8555C129.668 42.3789 129.605 42.9688 129.605 43.625V44.0938C129.605 44.6484 129.68 45.1641 129.828 45.6406C129.984 46.1094 130.211 46.5195 130.508 46.8711C130.805 47.2227 131.164 47.5 131.586 47.7031C132.008 47.8984 132.488 47.9961 133.027 47.9961C133.707 47.9961 134.312 47.8594 134.844 47.5859C135.375 47.3125 135.836 46.9258 136.227 46.4258L137.715 47.8672C137.441 48.2656 137.086 48.6484 136.648 49.0156C136.211 49.375 135.676 49.668 135.043 49.8945C134.418 50.1211 133.691 50.2344 132.863 50.2344ZM155.375 45.6055C155.375 45.2539 155.32 44.9414 155.211 44.668C155.109 44.3945 154.926 44.1445 154.66 43.918C154.395 43.6914 154.02 43.4727 153.535 43.2617C153.059 43.043 152.449 42.8203 151.707 42.5938C150.895 42.3438 150.145 42.0664 149.457 41.7617C148.777 41.4492 148.184 41.0898 147.676 40.6836C147.168 40.2695 146.773 39.7969 146.492 39.2656C146.211 38.7266 146.07 38.1055 146.07 37.4023C146.07 36.707 146.215 36.0742 146.504 35.5039C146.801 34.9336 147.219 34.4414 147.758 34.0273C148.305 33.6055 148.949 33.2812 149.691 33.0547C150.434 32.8203 151.254 32.7031 152.152 32.7031C153.418 32.7031 154.508 32.9375 155.422 33.4062C156.344 33.875 157.051 34.5039 157.543 35.293C158.043 36.082 158.293 36.9531 158.293 37.9062H155.375C155.375 37.3438 155.254 36.8477 155.012 36.418C154.777 35.9805 154.418 35.6367 153.934 35.3867C153.457 35.1367 152.852 35.0117 152.117 35.0117C151.422 35.0117 150.844 35.1172 150.383 35.3281C149.922 35.5391 149.578 35.8242 149.352 36.1836C149.125 36.543 149.012 36.9492 149.012 37.4023C149.012 37.7227 149.086 38.0156 149.234 38.2812C149.383 38.5391 149.609 38.7812 149.914 39.0078C150.219 39.2266 150.602 39.4336 151.062 39.6289C151.523 39.8242 152.066 40.0117 152.691 40.1914C153.637 40.4727 154.461 40.7852 155.164 41.1289C155.867 41.4648 156.453 41.8477 156.922 42.2773C157.391 42.707 157.742 43.1953 157.977 43.7422C158.211 44.2812 158.328 44.8945 158.328 45.582C158.328 46.3008 158.184 46.9492 157.895 47.5273C157.605 48.0977 157.191 48.5859 156.652 48.9922C156.121 49.3906 155.48 49.6992 154.73 49.918C153.988 50.1289 153.16 50.2344 152.246 50.2344C151.426 50.2344 150.617 50.125 149.82 49.9062C149.031 49.6875 148.312 49.3555 147.664 48.9102C147.016 48.457 146.5 47.8945 146.117 47.2227C145.734 46.543 145.543 45.75 145.543 44.8438H148.484C148.484 45.3984 148.578 45.8711 148.766 46.2617C148.961 46.6523 149.23 46.9727 149.574 47.2227C149.918 47.4648 150.316 47.6445 150.77 47.7617C151.23 47.8789 151.723 47.9375 152.246 47.9375C152.934 47.9375 153.508 47.8398 153.969 47.6445C154.438 47.4492 154.789 47.1758 155.023 46.8242C155.258 46.4727 155.375 46.0664 155.375 45.6055ZM166.461 37.3203V39.3828H159.312V37.3203H166.461ZM161.375 34.2148H164.199V46.4961C164.199 46.8867 164.254 47.1875 164.363 47.3984C164.48 47.6016 164.641 47.7383 164.844 47.8086C165.047 47.8789 165.285 47.9141 165.559 47.9141C165.754 47.9141 165.941 47.9023 166.121 47.8789C166.301 47.8555 166.445 47.832 166.555 47.8086L166.566 49.9648C166.332 50.0352 166.059 50.0977 165.746 50.1523C165.441 50.207 165.09 50.2344 164.691 50.2344C164.043 50.2344 163.469 50.1211 162.969 49.8945C162.469 49.6602 162.078 49.2812 161.797 48.7578C161.516 48.2344 161.375 47.5391 161.375 46.6719V34.2148ZM167.82 43.8008V43.5312C167.82 42.6172 167.953 41.7695 168.219 40.9883C168.484 40.1992 168.867 39.5156 169.367 38.9375C169.875 38.3516 170.492 37.8984 171.219 37.5781C171.953 37.25 172.781 37.0859 173.703 37.0859C174.633 37.0859 175.461 37.25 176.188 37.5781C176.922 37.8984 177.543 38.3516 178.051 38.9375C178.559 39.5156 178.945 40.1992 179.211 40.9883C179.477 41.7695 179.609 42.6172 179.609 43.5312V43.8008C179.609 44.7148 179.477 45.5625 179.211 46.3438C178.945 47.125 178.559 47.8086 178.051 48.3945C177.543 48.9727 176.926 49.4258 176.199 49.7539C175.473 50.0742 174.648 50.2344 173.727 50.2344C172.797 50.2344 171.965 50.0742 171.23 49.7539C170.504 49.4258 169.887 48.9727 169.379 48.3945C168.871 47.8086 168.484 47.125 168.219 46.3438C167.953 45.5625 167.82 44.7148 167.82 43.8008ZM170.645 43.5312V43.8008C170.645 44.3711 170.703 44.9102 170.82 45.418C170.938 45.9258 171.121 46.3711 171.371 46.7539C171.621 47.1367 171.941 47.4375 172.332 47.6562C172.723 47.875 173.188 47.9844 173.727 47.9844C174.25 47.9844 174.703 47.875 175.086 47.6562C175.477 47.4375 175.797 47.1367 176.047 46.7539C176.297 46.3711 176.48 45.9258 176.598 45.418C176.723 44.9102 176.785 44.3711 176.785 43.8008V43.5312C176.785 42.9688 176.723 42.4375 176.598 41.9375C176.48 41.4297 176.293 40.9805 176.035 40.5898C175.785 40.1992 175.465 39.8945 175.074 39.6758C174.691 39.4492 174.234 39.3359 173.703 39.3359C173.172 39.3359 172.711 39.4492 172.32 39.6758C171.938 39.8945 171.621 40.1992 171.371 40.5898C171.121 40.9805 170.938 41.4297 170.82 41.9375C170.703 42.4375 170.645 42.9688 170.645 43.5312ZM184.812 39.7344V50H181.988V37.3203H184.684L184.812 39.7344ZM188.691 37.2383L188.668 39.8633C188.496 39.832 188.309 39.8086 188.105 39.793C187.91 39.7773 187.715 39.7695 187.52 39.7695C187.035 39.7695 186.609 39.8398 186.242 39.9805C185.875 40.1133 185.566 40.3086 185.316 40.5664C185.074 40.8164 184.887 41.1211 184.754 41.4805C184.621 41.8398 184.543 42.2422 184.52 42.6875L183.875 42.7344C183.875 41.9375 183.953 41.1992 184.109 40.5195C184.266 39.8398 184.5 39.2422 184.812 38.7266C185.133 38.2109 185.531 37.8086 186.008 37.5195C186.492 37.2305 187.051 37.0859 187.684 37.0859C187.855 37.0859 188.039 37.1016 188.234 37.1328C188.438 37.1641 188.59 37.1992 188.691 37.2383ZM195.816 50.2344C194.879 50.2344 194.031 50.082 193.273 49.7773C192.523 49.4648 191.883 49.0312 191.352 48.4766C190.828 47.9219 190.426 47.2695 190.145 46.5195C189.863 45.7695 189.723 44.9609 189.723 44.0938V43.625C189.723 42.6328 189.867 41.7344 190.156 40.9297C190.445 40.125 190.848 39.4375 191.363 38.8672C191.879 38.2891 192.488 37.8477 193.191 37.543C193.895 37.2383 194.656 37.0859 195.477 37.0859C196.383 37.0859 197.176 37.2383 197.855 37.543C198.535 37.8477 199.098 38.2773 199.543 38.832C199.996 39.3789 200.332 40.0312 200.551 40.7891C200.777 41.5469 200.891 42.3828 200.891 43.2969V44.5039H191.094V42.4766H198.102V42.2539C198.086 41.7461 197.984 41.2695 197.797 40.8242C197.617 40.3789 197.34 40.0195 196.965 39.7461C196.59 39.4727 196.09 39.3359 195.465 39.3359C194.996 39.3359 194.578 39.4375 194.211 39.6406C193.852 39.8359 193.551 40.1211 193.309 40.4961C193.066 40.8711 192.879 41.3242 192.746 41.8555C192.621 42.3789 192.559 42.9688 192.559 43.625V44.0938C192.559 44.6484 192.633 45.1641 192.781 45.6406C192.938 46.1094 193.164 46.5195 193.461 46.8711C193.758 47.2227 194.117 47.5 194.539 47.7031C194.961 47.8984 195.441 47.9961 195.98 47.9961C196.66 47.9961 197.266 47.8594 197.797 47.5859C198.328 47.3125 198.789 46.9258 199.18 46.4258L200.668 47.8672C200.395 48.2656 200.039 48.6484 199.602 49.0156C199.164 49.375 198.629 49.668 197.996 49.8945C197.371 50.1211 196.645 50.2344 195.816 50.2344Z" fill="white"/>
<path d="M81.1895 17.6055L78.6406 25H77.0996L80.3105 16.4688H81.2949L81.1895 17.6055ZM83.3223 25L80.7676 17.6055L80.6562 16.4688H81.6465L84.8691 25H83.3223ZM83.1992 21.8359V23.002H78.5586V21.8359H83.1992ZM87.4531 23.8809L89.0059 18.6602H90.4707L88.2676 25H87.3535L87.4531 23.8809ZM86.2637 18.6602L87.8457 23.9043L87.9219 25H87.0078L84.793 18.6602H86.2637ZM94.8242 23.7285V20.7051C94.8242 20.4785 94.7832 20.2832 94.7012 20.1191C94.6191 19.9551 94.4941 19.8281 94.3262 19.7383C94.1621 19.6484 93.9551 19.6035 93.7051 19.6035C93.4746 19.6035 93.2754 19.6426 93.1074 19.7207C92.9395 19.7988 92.8086 19.9043 92.7148 20.0371C92.6211 20.1699 92.5742 20.3203 92.5742 20.4883H91.168C91.168 20.2383 91.2285 19.9961 91.3496 19.7617C91.4707 19.5273 91.6465 19.3184 91.877 19.1348C92.1074 18.9512 92.3828 18.8066 92.7031 18.7012C93.0234 18.5957 93.3828 18.543 93.7812 18.543C94.2578 18.543 94.6797 18.623 95.0469 18.7832C95.418 18.9434 95.709 19.1855 95.9199 19.5098C96.1348 19.8301 96.2422 20.2324 96.2422 20.7168V23.5352C96.2422 23.8242 96.2617 24.084 96.3008 24.3145C96.3438 24.541 96.4043 24.7383 96.4824 24.9062V25H95.0352C94.9688 24.8477 94.916 24.6543 94.877 24.4199C94.8418 24.1816 94.8242 23.9512 94.8242 23.7285ZM95.0293 21.1445L95.041 22.0176H94.0273C93.7656 22.0176 93.5352 22.043 93.3359 22.0938C93.1367 22.1406 92.9707 22.2109 92.8379 22.3047C92.7051 22.3984 92.6055 22.5117 92.5391 22.6445C92.4727 22.7773 92.4395 22.9277 92.4395 23.0957C92.4395 23.2637 92.4785 23.418 92.5566 23.5586C92.6348 23.6953 92.748 23.8027 92.8965 23.8809C93.0488 23.959 93.2324 23.998 93.4473 23.998C93.7363 23.998 93.9883 23.9395 94.2031 23.8223C94.4219 23.7012 94.5938 23.5547 94.7188 23.3828C94.8438 23.207 94.9102 23.041 94.918 22.8848L95.375 23.5117C95.3281 23.6719 95.248 23.8438 95.1348 24.0273C95.0215 24.2109 94.873 24.3867 94.6895 24.5547C94.5098 24.7188 94.293 24.8535 94.0391 24.959C93.7891 25.0645 93.5 25.1172 93.1719 25.1172C92.7578 25.1172 92.3887 25.0352 92.0645 24.8711C91.7402 24.7031 91.4863 24.4785 91.3027 24.1973C91.1191 23.9121 91.0273 23.5898 91.0273 23.2305C91.0273 22.8945 91.0898 22.5977 91.2148 22.3398C91.3438 22.0781 91.5312 21.8594 91.7773 21.6836C92.0273 21.5078 92.332 21.375 92.6914 21.2852C93.0508 21.1914 93.4609 21.1445 93.9219 21.1445H95.0293ZM99.2305 18.6602V25H97.8125V18.6602H99.2305ZM97.7188 16.9961C97.7188 16.7812 97.7891 16.6035 97.9297 16.4629C98.0742 16.3184 98.2734 16.2461 98.5273 16.2461C98.7773 16.2461 98.9746 16.3184 99.1191 16.4629C99.2637 16.6035 99.3359 16.7812 99.3359 16.9961C99.3359 17.207 99.2637 17.3828 99.1191 17.5234C98.9746 17.6641 98.7773 17.7344 98.5273 17.7344C98.2734 17.7344 98.0742 17.6641 97.9297 17.5234C97.7891 17.3828 97.7188 17.207 97.7188 16.9961ZM102.289 16V25H100.871V16H102.289ZM107.41 23.7285V20.7051C107.41 20.4785 107.369 20.2832 107.287 20.1191C107.205 19.9551 107.08 19.8281 106.912 19.7383C106.748 19.6484 106.541 19.6035 106.291 19.6035C106.061 19.6035 105.861 19.6426 105.693 19.7207C105.525 19.7988 105.395 19.9043 105.301 20.0371C105.207 20.1699 105.16 20.3203 105.16 20.4883H103.754C103.754 20.2383 103.814 19.9961 103.936 19.7617C104.057 19.5273 104.232 19.3184 104.463 19.1348C104.693 18.9512 104.969 18.8066 105.289 18.7012C105.609 18.5957 105.969 18.543 106.367 18.543C106.844 18.543 107.266 18.623 107.633 18.7832C108.004 18.9434 108.295 19.1855 108.506 19.5098C108.721 19.8301 108.828 20.2324 108.828 20.7168V23.5352C108.828 23.8242 108.848 24.084 108.887 24.3145C108.93 24.541 108.99 24.7383 109.068 24.9062V25H107.621C107.555 24.8477 107.502 24.6543 107.463 24.4199C107.428 24.1816 107.41 23.9512 107.41 23.7285ZM107.615 21.1445L107.627 22.0176H106.613C106.352 22.0176 106.121 22.043 105.922 22.0938C105.723 22.1406 105.557 22.2109 105.424 22.3047C105.291 22.3984 105.191 22.5117 105.125 22.6445C105.059 22.7773 105.025 22.9277 105.025 23.0957C105.025 23.2637 105.064 23.418 105.143 23.5586C105.221 23.6953 105.334 23.8027 105.482 23.8809C105.635 23.959 105.818 23.998 106.033 23.998C106.322 23.998 106.574 23.9395 106.789 23.8223C107.008 23.7012 107.18 23.5547 107.305 23.3828C107.43 23.207 107.496 23.041 107.504 22.8848L107.961 23.5117C107.914 23.6719 107.834 23.8438 107.721 24.0273C107.607 24.2109 107.459 24.3867 107.275 24.5547C107.096 24.7188 106.879 24.8535 106.625 24.959C106.375 25.0645 106.086 25.1172 105.758 25.1172C105.344 25.1172 104.975 25.0352 104.65 24.8711C104.326 24.7031 104.072 24.4785 103.889 24.1973C103.705 23.9121 103.613 23.5898 103.613 23.2305C103.613 22.8945 103.676 22.5977 103.801 22.3398C103.93 22.0781 104.117 21.8594 104.363 21.6836C104.613 21.5078 104.918 21.375 105.277 21.2852C105.637 21.1914 106.047 21.1445 106.508 21.1445H107.615ZM110.311 16H111.723V23.6465L111.588 25H110.311V16ZM115.859 21.7715V21.8945C115.859 22.3633 115.807 22.7949 115.701 23.1895C115.6 23.5801 115.443 23.9199 115.232 24.209C115.025 24.498 114.768 24.7227 114.459 24.8828C114.154 25.0391 113.801 25.1172 113.398 25.1172C113.004 25.1172 112.66 25.043 112.367 24.8945C112.074 24.7461 111.828 24.5352 111.629 24.2617C111.434 23.9883 111.275 23.6621 111.154 23.2832C111.033 22.9043 110.947 22.4863 110.896 22.0293V21.6367C110.947 21.1758 111.033 20.7578 111.154 20.3828C111.275 20.0039 111.434 19.6777 111.629 19.4043C111.828 19.127 112.072 18.9141 112.361 18.7656C112.654 18.6172 112.996 18.543 113.387 18.543C113.793 18.543 114.15 18.6211 114.459 18.7773C114.771 18.9336 115.031 19.1562 115.238 19.4453C115.445 19.7305 115.6 20.0703 115.701 20.4648C115.807 20.8594 115.859 21.2949 115.859 21.7715ZM114.447 21.8945V21.7715C114.447 21.4863 114.424 21.2188 114.377 20.9688C114.33 20.7148 114.252 20.4922 114.143 20.3008C114.037 20.1094 113.893 19.959 113.709 19.8496C113.529 19.7363 113.305 19.6797 113.035 19.6797C112.785 19.6797 112.57 19.7227 112.391 19.8086C112.211 19.8945 112.061 20.0117 111.939 20.1602C111.818 20.3086 111.723 20.4805 111.652 20.6758C111.586 20.8711 111.541 21.082 111.518 21.3086V22.3691C111.553 22.6621 111.627 22.9316 111.74 23.1777C111.857 23.4199 112.021 23.6152 112.232 23.7637C112.443 23.9082 112.715 23.9805 113.047 23.9805C113.309 23.9805 113.529 23.9277 113.709 23.8223C113.889 23.7168 114.031 23.5703 114.137 23.3828C114.246 23.1914 114.324 22.9688 114.371 22.7148C114.422 22.4609 114.447 22.1875 114.447 21.8945ZM118.566 16V25H117.148V16H118.566ZM122.908 25.1172C122.439 25.1172 122.016 25.041 121.637 24.8887C121.262 24.7324 120.941 24.5156 120.676 24.2383C120.414 23.9609 120.213 23.6348 120.072 23.2598C119.932 22.8848 119.861 22.4805 119.861 22.0469V21.8125C119.861 21.3164 119.934 20.8672 120.078 20.4648C120.223 20.0625 120.424 19.7188 120.682 19.4336C120.939 19.1445 121.244 18.9238 121.596 18.7715C121.947 18.6191 122.328 18.543 122.738 18.543C123.191 18.543 123.588 18.6191 123.928 18.7715C124.268 18.9238 124.549 19.1387 124.771 19.416C124.998 19.6895 125.166 20.0156 125.275 20.3945C125.389 20.7734 125.445 21.1914 125.445 21.6484V22.252H120.547V21.2383H124.051V21.127C124.043 20.873 123.992 20.6348 123.898 20.4121C123.809 20.1895 123.67 20.0098 123.482 19.873C123.295 19.7363 123.045 19.668 122.732 19.668C122.498 19.668 122.289 19.7188 122.105 19.8203C121.926 19.918 121.775 20.0605 121.654 20.248C121.533 20.4355 121.439 20.6621 121.373 20.9277C121.311 21.1895 121.279 21.4844 121.279 21.8125V22.0469C121.279 22.3242 121.316 22.582 121.391 22.8203C121.469 23.0547 121.582 23.2598 121.73 23.4355C121.879 23.6113 122.059 23.75 122.27 23.8516C122.48 23.9492 122.721 23.998 122.99 23.998C123.33 23.998 123.633 23.9297 123.898 23.793C124.164 23.6562 124.395 23.4629 124.59 23.2129L125.334 23.9336C125.197 24.1328 125.02 24.3242 124.801 24.5078C124.582 24.6875 124.314 24.834 123.998 24.9473C123.686 25.0605 123.322 25.1172 122.908 25.1172ZM129.266 21.9004V21.7656C129.266 21.3086 129.332 20.8848 129.465 20.4941C129.598 20.0996 129.789 19.7578 130.039 19.4688C130.293 19.1758 130.602 18.9492 130.965 18.7891C131.332 18.625 131.746 18.543 132.207 18.543C132.672 18.543 133.086 18.625 133.449 18.7891C133.816 18.9492 134.127 19.1758 134.381 19.4688C134.635 19.7578 134.828 20.0996 134.961 20.4941C135.094 20.8848 135.16 21.3086 135.16 21.7656V21.9004C135.16 22.3574 135.094 22.7812 134.961 23.1719C134.828 23.5625 134.635 23.9043 134.381 24.1973C134.127 24.4863 133.818 24.7129 133.455 24.877C133.092 25.0371 132.68 25.1172 132.219 25.1172C131.754 25.1172 131.338 25.0371 130.971 24.877C130.607 24.7129 130.299 24.4863 130.045 24.1973C129.791 23.9043 129.598 23.5625 129.465 23.1719C129.332 22.7812 129.266 22.3574 129.266 21.9004ZM130.678 21.7656V21.9004C130.678 22.1855 130.707 22.4551 130.766 22.709C130.824 22.9629 130.916 23.1855 131.041 23.377C131.166 23.5684 131.326 23.7188 131.521 23.8281C131.717 23.9375 131.949 23.9922 132.219 23.9922C132.48 23.9922 132.707 23.9375 132.898 23.8281C133.094 23.7188 133.254 23.5684 133.379 23.377C133.504 23.1855 133.596 22.9629 133.654 22.709C133.717 22.4551 133.748 22.1855 133.748 21.9004V21.7656C133.748 21.4844 133.717 21.2188 133.654 20.9688C133.596 20.7148 133.502 20.4902 133.373 20.2949C133.248 20.0996 133.088 19.9473 132.893 19.8379C132.701 19.7246 132.473 19.668 132.207 19.668C131.941 19.668 131.711 19.7246 131.516 19.8379C131.324 19.9473 131.166 20.0996 131.041 20.2949C130.916 20.4902 130.824 20.7148 130.766 20.9688C130.707 21.2188 130.678 21.4844 130.678 21.7656ZM137.744 20.0137V25H136.332V18.6602H137.662L137.744 20.0137ZM137.492 21.5957L137.035 21.5898C137.039 21.1406 137.102 20.7285 137.223 20.3535C137.348 19.9785 137.52 19.6562 137.738 19.3867C137.961 19.1172 138.227 18.9102 138.535 18.7656C138.844 18.6172 139.188 18.543 139.566 18.543C139.871 18.543 140.146 18.5859 140.393 18.6719C140.643 18.7539 140.855 18.8887 141.031 19.0762C141.211 19.2637 141.348 19.5078 141.441 19.8086C141.535 20.1055 141.582 20.4707 141.582 20.9043V25H140.164V20.8984C140.164 20.5938 140.119 20.3535 140.029 20.1777C139.943 19.998 139.816 19.8711 139.648 19.7969C139.484 19.7188 139.279 19.6797 139.033 19.6797C138.791 19.6797 138.574 19.7305 138.383 19.832C138.191 19.9336 138.029 20.0723 137.896 20.248C137.768 20.4238 137.668 20.627 137.598 20.8574C137.527 21.0879 137.492 21.334 137.492 21.5957ZM148.918 18.6602V19.6914H145.344V18.6602H148.918ZM146.375 17.1074H147.787V23.248C147.787 23.4434 147.814 23.5938 147.869 23.6992C147.928 23.8008 148.008 23.8691 148.109 23.9043C148.211 23.9395 148.33 23.957 148.467 23.957C148.564 23.957 148.658 23.9512 148.748 23.9395C148.838 23.9277 148.91 23.916 148.965 23.9043L148.971 24.9824C148.854 25.0176 148.717 25.0488 148.561 25.0762C148.408 25.1035 148.232 25.1172 148.033 25.1172C147.709 25.1172 147.422 25.0605 147.172 24.9473C146.922 24.8301 146.727 24.6406 146.586 24.3789C146.445 24.1172 146.375 23.7695 146.375 23.3359V17.1074ZM151.402 16V25H149.996V16H151.402ZM151.156 21.5957L150.699 21.5898C150.703 21.1523 150.764 20.748 150.881 20.377C151.002 20.0059 151.17 19.6836 151.385 19.4102C151.604 19.1328 151.865 18.9199 152.17 18.7715C152.475 18.6191 152.812 18.543 153.184 18.543C153.496 18.543 153.777 18.5859 154.027 18.6719C154.281 18.7578 154.5 18.8965 154.684 19.0879C154.867 19.2754 155.006 19.5215 155.1 19.8262C155.197 20.127 155.246 20.4941 155.246 20.9277V25H153.828V20.916C153.828 20.6113 153.783 20.3691 153.693 20.1895C153.607 20.0098 153.48 19.8809 153.312 19.8027C153.145 19.7207 152.939 19.6797 152.697 19.6797C152.443 19.6797 152.219 19.7305 152.023 19.832C151.832 19.9336 151.672 20.0723 151.543 20.248C151.414 20.4238 151.316 20.627 151.25 20.8574C151.188 21.0879 151.156 21.334 151.156 21.5957ZM159.471 25.1172C159.002 25.1172 158.578 25.041 158.199 24.8887C157.824 24.7324 157.504 24.5156 157.238 24.2383C156.977 23.9609 156.775 23.6348 156.635 23.2598C156.494 22.8848 156.424 22.4805 156.424 22.0469V21.8125C156.424 21.3164 156.496 20.8672 156.641 20.4648C156.785 20.0625 156.986 19.7188 157.244 19.4336C157.502 19.1445 157.807 18.9238 158.158 18.7715C158.51 18.6191 158.891 18.543 159.301 18.543C159.754 18.543 160.15 18.6191 160.49 18.7715C160.83 18.9238 161.111 19.1387 161.334 19.416C161.561 19.6895 161.729 20.0156 161.838 20.3945C161.951 20.7734 162.008 21.1914 162.008 21.6484V22.252H157.109V21.2383H160.613V21.127C160.605 20.873 160.555 20.6348 160.461 20.4121C160.371 20.1895 160.232 20.0098 160.045 19.873C159.857 19.7363 159.607 19.668 159.295 19.668C159.061 19.668 158.852 19.7188 158.668 19.8203C158.488 19.918 158.338 20.0605 158.217 20.248C158.096 20.4355 158.002 20.6621 157.936 20.9277C157.873 21.1895 157.842 21.4844 157.842 21.8125V22.0469C157.842 22.3242 157.879 22.582 157.953 22.8203C158.031 23.0547 158.145 23.2598 158.293 23.4355C158.441 23.6113 158.621 23.75 158.832 23.8516C159.043 23.9492 159.283 23.998 159.553 23.998C159.893 23.998 160.195 23.9297 160.461 23.793C160.727 23.6562 160.957 23.4629 161.152 23.2129L161.896 23.9336C161.76 24.1328 161.582 24.3242 161.363 24.5078C161.145 24.6875 160.877 24.834 160.561 24.9473C160.248 25.0605 159.885 25.1172 159.471 25.1172Z" fill="white"/>
<defs>
<clipPath id="clip0_12_184">
<rect width="36" height="36" fill="white" transform="translate(18 15)"/>
</clipPath>
</defs>
</svg>
